<svg width="20" height="20" viewBox="0 0 20 20" fill="none" xmlns="http://www.w3.org/2000/svg">
<path d="M19.1666 19.167L9.99992 19.5837L0.833252 19.167C0.833252 14.1044 4.93731 9.16699 9.99992 9.16699C15.0625 9.16699 19.1666 14.1044 19.1666 19.167Z" fill="#FFD887"/>
<path d="M17.5 19.1663L10 19.583L2.5 19.1663C2.5 14.7941 5.85786 10.833 10 10.833C14.1421 10.833 17.5 14.7941 17.5 19.1663Z" fill="#FDFDFD"/>
<circle cx="10.0001" cy="3.33333" r="2.83333" fill="#FDFDFD" stroke="#FFAD01"/>
<path d="M19.4604 19.0422C19.4795 19.274 19.288 19.5002 19 19.5002H10.4167H1C0.712033 19.5002 0.520504 19.274 0.539633 19.0422C0.987548 13.6141 5.12414 8.8335 10 8.8335C14.8759 8.8335 19.0125 13.6141 19.4604 19.0422Z" stroke="#323232"/>
</svg>
