<svg width="16" height="16" viewBox="0 0 16 16" fill="none" xmlns="http://www.w3.org/2000/svg">
<path d="M12.4447 7.37568L5.32449 0.255608C5.15981 0.090796 4.93997 0 4.70557 0C4.47116 0 4.25133 0.090796 4.08664 0.255608L3.56229 0.779831C3.22109 1.12142 3.22109 1.6766 3.56229 2.01767L9.5413 7.99668L3.55566 13.9823C3.39097 14.1471 3.30005 14.3668 3.30005 14.6011C3.30005 14.8357 3.39097 15.0554 3.55566 15.2203L4.08001 15.7444C4.24482 15.9092 4.46453 16 4.69893 16C4.93334 16 5.15317 15.9092 5.31785 15.7444L12.4447 8.61782C12.6098 8.45248 12.7004 8.23174 12.6999 7.99707C12.7004 7.7615 12.6098 7.54088 12.4447 7.37568Z" fill="#FFAD01"/>
</svg>
