<svg width="10" height="16" viewBox="0 0 10 16" fill="none" xmlns="http://www.w3.org/2000/svg">
<path d="M9.44445 7.37568L2.32424 0.255608C2.15956 0.090796 1.93973 0 1.70532 0C1.47092 0 1.25108 0.090796 1.0864 0.255608L0.562047 0.779831C0.220846 1.12142 0.220846 1.6766 0.562047 2.01767L6.54105 7.99668L0.555412 13.9823C0.390731 14.1471 0.299805 14.3668 0.299805 14.6011C0.299805 14.8357 0.390731 15.0554 0.555412 15.2203L1.07977 15.7444C1.24458 15.9092 1.46428 16 1.69869 16C1.93309 16 2.15293 15.9092 2.31761 15.7444L9.44445 8.61782C9.60952 8.45248 9.70018 8.23174 9.69966 7.99707C9.70018 7.7615 9.60952 7.54088 9.44445 7.37568Z" fill="#C1C2C1"/>
</svg>
