<svg width="20" height="20" viewBox="0 0 20 20" fill="none" xmlns="http://www.w3.org/2000/svg">
<path d="M5.60735 18.028C5.78474 17.6791 5.86028 17.2874 5.82533 16.8976C5.79038 16.5078 5.64635 16.1357 5.40973 15.824C5.17311 15.5123 4.85347 15.2735 4.48743 15.1351C4.12139 14.9966 3.72375 14.964 3.34006 15.0411C2.95637 15.1182 2.60215 15.3018 2.31797 15.5708C2.03378 15.8399 1.83113 16.1836 1.73323 16.5625C1.63533 16.9414 1.64614 17.3402 1.76441 17.7133C1.88269 18.0863 2.10364 18.4185 2.40198 18.6718L2.90408 18.0804C2.71684 17.9214 2.57816 17.713 2.50393 17.4788C2.4297 17.2447 2.42291 16.9944 2.48436 16.7566C2.5458 16.5187 2.67299 16.3031 2.85135 16.1342C3.02971 15.9653 3.25202 15.8501 3.49284 15.8017C3.73365 15.7533 3.98321 15.7738 4.21295 15.8607C4.44268 15.9476 4.64329 16.0974 4.7918 16.2931C4.94031 16.4887 5.03071 16.7222 5.05264 16.9669C5.07458 17.2115 5.02716 17.4574 4.91583 17.6763L5.60735 18.028Z" fill="#FFD887"/>
<path d="M18.9858 18.2558C19.1277 17.9767 19.1881 17.6633 19.1602 17.3515C19.1322 17.0396 19.017 16.742 18.8277 16.4926C18.6384 16.2432 18.3827 16.0522 18.0898 15.9415C17.797 15.8307 17.4789 15.8046 17.172 15.8663C16.865 15.9279 16.5816 16.0748 16.3543 16.2901C16.1269 16.5053 15.9648 16.7803 15.8865 17.0834C15.8082 17.3865 15.8168 17.7056 15.9114 18.004C16.0061 18.3025 16.1828 18.5682 16.4215 18.7708L16.8232 18.2977C16.6734 18.1705 16.5624 18.0038 16.503 17.8164C16.4437 17.6291 16.4382 17.4289 16.4874 17.2386C16.5365 17.0484 16.6383 16.8758 16.781 16.7407C16.9237 16.6056 17.1015 16.5135 17.2942 16.4748C17.4868 16.4361 17.6865 16.4524 17.8703 16.5219C18.054 16.5915 18.2145 16.7113 18.3333 16.8679C18.4521 17.0244 18.5245 17.2112 18.542 17.4069C18.5596 17.6026 18.5216 17.7993 18.4326 17.9745L18.9858 18.2558Z" fill="#FFD887"/>
<path d="M3.19746 2.64993C3.3039 2.44062 3.34923 2.20557 3.32826 1.9717C3.30729 1.73782 3.22087 1.51458 3.07889 1.32755C2.93692 1.14052 2.74514 0.997261 2.52552 0.914182C2.30589 0.831103 2.06731 0.811565 1.83709 0.857805C1.60688 0.904046 1.39435 1.0142 1.22384 1.17564C1.05333 1.33708 0.931737 1.54328 0.872996 1.77063C0.814256 1.99797 0.820739 2.23727 0.891703 2.4611C0.962668 2.68493 1.09524 2.88425 1.27424 3.03622L1.5755 2.68138C1.46316 2.586 1.37995 2.46091 1.33541 2.32043C1.29087 2.17994 1.28681 2.02976 1.32367 1.88707C1.36054 1.74438 1.43685 1.61497 1.54387 1.51364C1.65088 1.41232 1.78427 1.34319 1.92876 1.31417C2.07325 1.28514 2.22298 1.29741 2.36083 1.34955C2.49867 1.40169 2.61903 1.4916 2.70814 1.60899C2.79724 1.72637 2.85148 1.86648 2.86464 2.01327C2.8778 2.16005 2.84935 2.30757 2.78255 2.43894L3.19746 2.64993Z" fill="#FFD887"/>
<path d="M16.5312 5.15025C16.6376 4.94094 16.683 4.70589 16.662 4.47202C16.641 4.23814 16.5546 4.0149 16.4126 3.82787C16.2707 3.64084 16.0789 3.49758 15.8593 3.4145C15.6396 3.33142 15.401 3.31189 15.1708 3.35813C14.9406 3.40437 14.7281 3.51452 14.5576 3.67596C14.3871 3.8374 14.2655 4.0436 14.2067 4.27095C14.148 4.49829 14.1545 4.73759 14.2254 4.96142C14.2964 5.18525 14.429 5.38457 14.608 5.53654L14.9092 5.1817C14.7969 5.08632 14.7137 4.96123 14.6692 4.82075C14.6246 4.68026 14.6205 4.53008 14.6574 4.38739C14.6943 4.2447 14.7706 4.11529 14.8776 4.01396C14.9846 3.91264 15.118 3.84351 15.2625 3.81449C15.407 3.78547 15.5567 3.79773 15.6946 3.84987C15.8324 3.90201 15.9528 3.99192 16.0419 4.10931C16.131 4.22669 16.1852 4.3668 16.1984 4.51359C16.2115 4.66037 16.1831 4.80789 16.1163 4.93926L16.5312 5.15025Z" fill="#FFD887"/>
<circle cx="2.08333" cy="2.08333" r="1.58333" stroke="#323232"/>
<circle cx="15.4166" cy="4.58333" r="1.58333" stroke="#323232"/>
<circle cx="17.5" cy="17.5" r="2" stroke="#323232"/>
<circle cx="3.74992" cy="17.0833" r="2.41667" stroke="#323232"/>
<line x1="5.43325" y1="15.5333" x2="7.93325" y2="12.2" stroke="#323232"/>
<path d="M2.91667 3.33337L7.7946 8.03874" stroke="#323232"/>
<path d="M12.5001 11.7529L16.6667 15.8333" stroke="#323232"/>
<line x1="11.632" y1="7.97977" x2="14.132" y2="5.47977" stroke="#323232"/>
<circle cx="10.0001" cy="10" r="2.83333" stroke="#FFAD01"/>
</svg>
