<svg width="22" height="21" viewBox="0 0 22 21" fill="none" xmlns="http://www.w3.org/2000/svg">
<rect x="12" y="12" width="9" height="8" fill="#323232"/>
<rect x="8" y="5" width="6" height="15" fill="#323232"/>
<path d="M13.766 1V3.12766H5.68085V16.3191H1V1H13.766Z" fill="#FFAD01" stroke="#FFAD01" stroke-linecap="round" stroke-linejoin="round"/>
<path d="M7.88306 20.5L7.88306 5.32977V5.32977H13.6916L13.6916 11.1383C13.6916 11.6906 14.1393 12.1383 14.6916 12.1383H20.5001V20.5H7.88306Z" stroke="#323232"/>
<path d="M14.1194 4.90176C13.9242 4.70649 13.6076 4.70649 13.4123 4.90176C13.2171 5.09702 13.2171 5.4136 13.4123 5.60886L14.1194 4.90176ZM20.2208 12.4174C20.4161 12.6126 20.7327 12.6126 20.9279 12.4174C21.1232 12.2221 21.1232 11.9055 20.9279 11.7103L20.2208 12.4174ZM13.4123 5.60886L20.2208 12.4174L20.9279 11.7103L14.1194 4.90176L13.4123 5.60886Z" fill="#323232"/>
<line x1="10.4363" y1="14.5425" x2="17.9469" y2="14.5425" stroke="white" stroke-linecap="round"/>
<line x1="10.4363" y1="11.1383" x2="11.1384" y2="11.1383" stroke="white" stroke-linecap="round"/>
<line x1="10.4363" y1="8.58511" x2="11.1384" y2="8.58511" stroke="white" stroke-linecap="round"/>
<line x1="10.4363" y1="17.0957" x2="17.9469" y2="17.0957" stroke="white" stroke-linecap="round"/>
</svg>
