<svg width="20" height="16" viewBox="0 0 20 16" fill="none" xmlns="http://www.w3.org/2000/svg">
<path d="M10 7.06149L1.47006 0.5L18.5299 0.499999L10 7.06149Z" stroke="#FFAD01" stroke-linecap="round"/>
<path d="M1.53906 3.07669L3.07752 4.23054V14.6152H1.53906V3.07669Z" fill="#FFD887"/>
<path fill-rule="evenodd" clip-rule="evenodd" d="M9.59313 8.91548C9.95573 9.17525 10.4465 9.16347 10.7962 8.88661L17.3969 3.66098C17.9117 3.25342 18.6754 3.53381 18.8042 4.17766V4.17766C18.8676 4.49496 18.7516 4.82146 18.5021 5.02754L10.5893 11.5642C10.5758 11.5754 10.5618 11.5857 10.5476 11.5953C10.3487 11.7282 10.0727 11.7833 9.83751 11.7392C9.75829 11.7244 9.68128 11.6901 9.61378 11.6349L1.29411 4.83682C1.11756 4.69255 1.01514 4.47661 1.01514 4.24861V4.24861C1.01513 3.63026 1.71449 3.27098 2.21715 3.6311L9.59313 8.91548Z" fill="#FFD887"/>
<path d="M18.7308 14.8846H1.26929L1.26929 2.95662L9.37935 9.37709C9.74306 9.66502 10.257 9.66503 10.6208 9.37709L18.7308 2.95662L18.7308 14.8846Z" stroke="#323232"/>
</svg>
