<svg width="22" height="21" viewBox="0 0 22 21" fill="none" xmlns="http://www.w3.org/2000/svg">
<path d="M14.6663 5.83334C14.6663 7.78547 13.7728 10.199 12.8393 12.1729C12.3774 13.1494 11.9151 13.9992 11.5683 14.6049C11.5147 14.6985 11.4639 14.7862 11.4163 14.8676C11.3687 14.7862 11.3178 14.6985 11.2642 14.6049C10.9174 13.9992 10.4551 13.1494 9.99326 12.1729C9.05973 10.199 8.16626 7.78547 8.16626 5.83334C8.16626 3.81223 8.57893 2.71596 9.13133 2.11991C9.67208 1.53645 10.4401 1.33334 11.4163 1.33334C12.3925 1.33334 13.1604 1.53645 13.7012 2.11991C14.2536 2.71596 14.6663 3.81223 14.6663 5.83334Z" stroke="#FFD887"/>
<ellipse cx="10.216" cy="0.870615" rx="1.66667" ry="0.416667" transform="rotate(-16.4035 10.216 0.870615)" fill="#FFD887"/>
<ellipse cx="8.28434" cy="2.32717" rx="1.66667" ry="0.416667" transform="rotate(-57.9207 8.28434 2.32717)" fill="#FFD887"/>
<ellipse cx="10.1461" cy="14.0894" rx="2.62705" ry="0.554061" transform="rotate(-116.889 10.1461 14.0894)" fill="#FFD887"/>
<ellipse cx="9.3485" cy="11.7603" rx="2.62705" ry="0.554061" transform="rotate(-116.889 9.3485 11.7603)" fill="#FFD887"/>
<ellipse cx="8.51547" cy="9.26029" rx="2.62705" ry="0.554061" transform="rotate(-110.163 8.51547 9.26029)" fill="#FFD887"/>
<path d="M14.6666 5.83333C14.6666 8.13615 13.665 10.9698 12.6274 13.2735C12.113 14.4155 11.5982 15.4092 11.212 16.1172C11.1359 16.2567 11.0649 16.385 10.9999 16.5011C10.9349 16.385 10.8639 16.2567 10.7878 16.1172C10.4017 15.4092 9.88687 14.4155 9.37247 13.2735C8.33484 10.9698 7.33325 8.13615 7.33325 5.83333C7.33325 3.46246 7.79439 2.15378 8.42851 1.43535C9.04602 0.735733 9.91487 0.5 10.9999 0.5C12.085 0.5 12.9538 0.735733 13.5713 1.43535C14.2055 2.15378 14.6666 3.46246 14.6666 5.83333Z" stroke="#323232"/>
<circle cx="10.9999" cy="4.16667" r="1.16667" stroke="#323232"/>
<line x1="1.5" y1="19.5" x2="20.5" y2="19.5" stroke="#FFAD01" stroke-linecap="round" stroke-linejoin="round"/>
<path d="M20.5833 19.5833L17.2499 16.25" stroke="#FFAD01" stroke-linecap="round" stroke-linejoin="round"/>
<line x1="14" y1="16.1667" x2="17.1667" y2="16.1667" stroke="#FFAD01" stroke-linecap="round" stroke-linejoin="round"/>
<path d="M1.41675 19.5833L4.75008 16.25" stroke="#FFAD01" stroke-linecap="round" stroke-linejoin="round"/>
<line x1="0.5" y1="-0.5" x2="3.66667" y2="-0.5" transform="matrix(-1 0 0 1 8.5 16.6667)" stroke="#FFAD01" stroke-linecap="round" stroke-linejoin="round"/>
<circle cx="11.0001" cy="4.16666" r="0.833333" fill="#FFD887"/>
</svg>
