<svg width="20" height="20" viewBox="0 0 20 20" fill="none" xmlns="http://www.w3.org/2000/svg">
<path d="M13.6666 5.83333C13.6666 8.13615 12.665 10.9698 11.6274 13.2735C11.113 14.4155 10.5982 15.4092 10.212 16.1172C10.1359 16.2567 10.0649 16.385 9.99992 16.5011C9.93492 16.385 9.86389 16.2567 9.78783 16.1172C9.40166 15.4092 8.88687 14.4155 8.37247 13.2735C7.33484 10.9698 6.33325 8.13615 6.33325 5.83333C6.33325 3.46246 6.79439 2.15378 7.42851 1.43535C8.04602 0.735733 8.91487 0.5 9.99992 0.5C11.085 0.5 11.9538 0.735733 12.5713 1.43535C13.2055 2.15378 13.6666 3.46246 13.6666 5.83333Z" fill="#323232" stroke="#323232"/>
<circle cx="9.99992" cy="4.16667" r="1.16667" stroke="#E5E5E5"/>
<circle cx="10.0001" cy="4.16666" r="0.833333" fill="#E5E5E5"/>
<path d="M1.14029 19.5L3.90345 16.5H6.62286L9.38602 19.5H1.14029ZM18.8597 19.5H10.614L13.3771 16.5H16.0965L18.8597 19.5ZM13.496 16.371C13.4959 16.3711 13.4958 16.3712 13.4957 16.3713L13.496 16.371L13.496 16.371Z" fill="#FFAD01" stroke="#FFAD01" stroke-linecap="round" stroke-linejoin="round"/>
</svg>
