<svg width="20" height="20" viewBox="0 0 20 20" fill="none" xmlns="http://www.w3.org/2000/svg">
<rect x="0.83374" y="4.16635" width="1.66667" height="14.1667" fill="#FFD887"/>
<rect x="11.667" y="4.99969" width="1.66667" height="14.1667" fill="#FFD887"/>
<rect x="8.97021" y="5.76303" width="1.66667" height="8.60355" transform="rotate(100.042 8.97021 5.76303)" fill="#FFD887"/>
<rect x="19.312" y="4.16635" width="1.66667" height="8.60355" transform="rotate(80.2021 19.312 4.16635)" fill="#FFD887"/>
<path d="M1.08944 4.03962L8.25611 5.34265C8.49386 5.38588 8.66667 5.59294 8.66667 5.83459V18.8018C8.66667 19.1137 8.38414 19.3495 8.07722 19.2937L0.910557 17.9907C0.672812 17.9475 0.5 17.7404 0.5 17.4988V4.53156C0.5 4.2196 0.782522 3.98382 1.08944 4.03962Z" stroke="#323232"/>
<path d="M3.04138 1.66667L10 0.506897L16.9586 1.66667L10 2.82644L3.04138 1.66667Z" stroke="#FFAD01"/>
<path d="M11.7438 5.34265L18.9105 4.03962C19.2174 3.98382 19.4999 4.2196 19.4999 4.53156V17.4988C19.4999 17.7404 19.3271 17.9475 19.0894 17.9907L11.9227 19.2937C11.6158 19.3495 11.3333 19.1137 11.3333 18.8018V5.83459C11.3333 5.59294 11.5061 5.38588 11.7438 5.34265Z" stroke="#323232"/>
</svg>
