<svg width="20" height="20" viewBox="0 0 20 20" fill="none" xmlns="http://www.w3.org/2000/svg">
<path d="M19 19C19 16.3478 18.0518 13.8043 16.364 11.9289C14.6761 10.0536 12.3869 9 10 9C7.61305 9 5.32387 10.0536 3.63604 11.9289C1.94821 13.8043 1 16.3478 1 19L3.04894 19C3.04894 16.9516 3.78128 14.9871 5.08486 13.5387C6.38844 12.0903 8.15647 11.2766 10 11.2766C11.8435 11.2766 13.6116 12.0903 14.9151 13.5387C16.2187 14.9872 16.9511 16.9516 16.9511 19H19Z" fill="#FFD887"/>
<circle cx="10.0001" cy="3.33333" r="2.83333" stroke="#FFAD01"/>
<path d="M19 19.5H10.4167H1C0.712033 19.5 0.520504 19.2739 0.539633 19.0421C0.987548 13.614 5.12414 8.83334 10 8.83334C14.8759 8.83334 19.0125 13.614 19.4604 19.0421C19.4795 19.2739 19.288 19.5 19 19.5Z" stroke="#323232"/>
</svg>
