<svg width="24" height="25" viewBox="0 0 24 25" fill="none" xmlns="http://www.w3.org/2000/svg">
<path d="M23.7061 22.3924L17.9363 16.7204C19.3665 15.0062 20.2286 12.8106 20.2286 10.4176C20.2286 4.92847 15.698 0.474609 10.1143 0.474609C4.52571 0.474609 0 4.92847 0 10.4176C0 15.9066 4.52571 20.3605 10.1143 20.3605C12.5486 20.3605 14.7771 19.5179 16.5208 18.1119L22.2906 23.7791C22.6824 24.1643 23.3143 24.1643 23.7061 23.7791C24.098 23.3988 24.098 22.7728 23.7061 22.3924ZM10.1143 18.3815C5.64245 18.3815 2.00816 14.8088 2.00816 10.4176C2.00816 6.02629 5.64245 2.44875 10.1143 2.44875C14.5812 2.44875 18.2204 6.02629 18.2204 10.4176C18.2204 14.8088 14.5812 18.3815 10.1143 18.3815Z" fill="#DBDBDB"/>
</svg>
