<svg width="20" height="20" viewBox="0 0 20 20" fill="none" xmlns="http://www.w3.org/2000/svg">
<circle r="4.5" transform="matrix(-1 0 0 1 10 10)" stroke="#FFAD01"/>
<path d="M18.5765 7.9505L17.193 7.64975C17.0727 7.28143 16.9237 6.92218 16.7478 6.57611L17.5137 5.38478C17.6505 5.17192 17.6204 4.89246 17.4416 4.71365L15.2863 2.55841C15.1075 2.37961 14.8281 2.34953 14.6152 2.48631L13.4239 3.2522C13.0778 3.07628 12.7186 2.92728 12.3503 2.80698L12.0495 1.42352C11.9958 1.17633 11.7769 1 11.5239 1H8.47606C8.2231 1 8.0042 1.17633 7.9505 1.42352L7.64975 2.80698C7.28143 2.92728 6.92218 3.07628 6.57611 3.2522L5.38478 2.48631C5.17192 2.34953 4.89246 2.37961 4.71365 2.55841L2.55841 4.71365C2.37961 4.89246 2.34953 5.17192 2.48631 5.38478L3.2522 6.57611C3.07628 6.92218 2.92728 7.28143 2.80698 7.64975L1.42352 7.9505C1.17633 8.00433 1 8.2231 1 8.47606V11.5239C1 11.7769 1.17633 11.9957 1.42352 12.0495L2.80698 12.3503C2.92728 12.7186 3.07628 13.0778 3.2522 13.4239L2.48631 14.6152C2.34953 14.8281 2.37961 15.1075 2.55841 15.2863L4.71365 17.4416C4.89246 17.6204 5.17192 17.6505 5.38478 17.5137L6.57611 16.7478C6.92218 16.9237 7.28143 17.0727 7.64975 17.193L7.9505 18.5765C8.0042 18.8237 8.2231 19 8.47606 19H11.5239C11.7769 19 11.9958 18.8237 12.0495 18.5765L12.3503 17.193C12.7186 17.0727 13.0778 16.9237 13.4239 16.7478L14.6152 17.5137C14.8281 17.6505 15.1075 17.6205 15.2863 17.4416L17.4416 15.2863C17.6204 15.1075 17.6505 14.8281 17.5137 14.6152L16.7478 13.4239C16.9237 13.0778 17.0727 12.7186 17.193 12.3503L18.5765 12.0495C18.8237 11.9957 19 11.7769 19 11.5239V8.47606C19 8.2231 18.8237 8.00433 18.5765 7.9505V7.9505ZM17.9243 11.0904L16.6558 11.3661C16.4609 11.4086 16.3055 11.5553 16.2519 11.7472C16.1125 12.2473 15.912 12.7308 15.656 13.1844C15.558 13.3581 15.564 13.5718 15.672 13.7396L16.3744 14.8322L14.8323 16.3744L13.7396 15.672C13.5718 15.564 13.3581 15.558 13.1845 15.656C12.7308 15.912 12.2473 16.1125 11.7472 16.2519C11.5553 16.3055 11.4086 16.4609 11.3661 16.6558L11.0904 17.9243H8.90961L8.63385 16.6558C8.59142 16.4609 8.44475 16.3055 8.25276 16.2519C7.75275 16.1125 7.26921 15.912 6.81561 15.656C6.64189 15.558 6.42821 15.5642 6.26039 15.672L5.1678 16.3744L3.62573 14.8322L4.32803 13.7396C4.43597 13.5718 4.44215 13.3581 4.3441 13.1844C4.08812 12.7308 3.88762 12.2473 3.74809 11.7472C3.69453 11.5553 3.53922 11.4086 3.34435 11.3661L2.0757 11.0904V8.90961L3.34421 8.63385C3.53908 8.59142 3.69453 8.44475 3.74809 8.25276C3.88748 7.75275 4.08798 7.26921 4.34396 6.81561C4.44202 6.64189 4.43597 6.42821 4.32803 6.26039L3.6256 5.1678L5.16766 3.6256L6.26039 4.32803C6.42821 4.43597 6.64189 4.44202 6.81548 4.34396C7.26921 4.08798 7.75275 3.88748 8.25276 3.74809C8.44475 3.69453 8.59142 3.53908 8.63385 3.34421L8.90961 2.0757H11.0904L11.3661 3.34421C11.4086 3.53908 11.5553 3.69453 11.7472 3.74809C12.2473 3.88748 12.7308 4.08798 13.1844 4.34396C13.3581 4.44202 13.5718 4.43584 13.7396 4.32803L14.8322 3.6256L16.3743 5.1678L15.672 6.26039C15.564 6.42821 15.5578 6.64189 15.6559 6.81561C15.912 7.26921 16.1124 7.75275 16.2519 8.25276C16.3055 8.44475 16.4608 8.59142 16.6557 8.63385L17.9243 8.90961V11.0904Z" fill="#FFD887"/>
<path d="M19.5294 7.72278L17.9922 7.38861C17.8586 6.97937 17.693 6.5802 17.4976 6.19568L18.3485 4.87198C18.5005 4.63547 18.4671 4.32495 18.2684 4.12628L15.8737 1.73157C15.675 1.5329 15.3645 1.49948 15.128 1.65146L13.8043 2.50244C13.4198 2.30698 13.0206 2.14142 12.6114 2.00775L12.2772 0.470581C12.2176 0.195923 11.9743 0 11.6933 0H8.30673C8.02567 0 7.78244 0.195923 7.72278 0.470581L7.38861 2.00775C6.97937 2.14142 6.5802 2.30698 6.19568 2.50244L4.87198 1.65146C4.63547 1.49948 4.32495 1.5329 4.12628 1.73157L1.73157 4.12628C1.5329 4.32495 1.49948 4.63547 1.65146 4.87198L2.50244 6.19568C2.30698 6.5802 2.14142 6.97937 2.00775 7.38861L0.470581 7.72278C0.195923 7.78259 0 8.02567 0 8.30673V11.6933C0 11.9743 0.195923 12.2174 0.470581 12.2772L2.00775 12.6114C2.14142 13.0206 2.30698 13.4198 2.50244 13.8043L1.65146 15.128C1.49948 15.3645 1.5329 15.675 1.73157 15.8737L4.12628 18.2684C4.32495 18.4671 4.63547 18.5005 4.87198 18.3485L6.19568 17.4976C6.5802 17.693 6.97937 17.8586 7.38861 17.9922L7.72278 19.5294C7.78244 19.8041 8.02567 20 8.30673 20H11.6933C11.9743 20 12.2176 19.8041 12.2772 19.5294L12.6114 17.9922C13.0206 17.8586 13.4198 17.693 13.8043 17.4976L15.128 18.3485C15.3645 18.5005 15.675 18.4673 15.8737 18.2684L18.2684 15.8737C18.4671 15.675 18.5005 15.3645 18.3485 15.128L17.4976 13.8043C17.693 13.4198 17.8586 13.0206 17.9922 12.6114L19.5294 12.2772C19.8041 12.2174 20 11.9743 20 11.6933V8.30673C20 8.02567 19.8041 7.78259 19.5294 7.72278V7.72278ZM18.8048 11.2115L17.3953 11.5179C17.1788 11.5651 17.0061 11.7281 16.9466 11.9414C16.7917 12.4969 16.5689 13.0342 16.2845 13.5382C16.1755 13.7312 16.1823 13.9687 16.3022 14.1551L17.0827 15.3691L15.3693 17.0827L14.1551 16.3022C13.9687 16.1823 13.7312 16.1755 13.5384 16.2845C13.0342 16.5689 12.4969 16.7917 11.9414 16.9466C11.7281 17.0061 11.5651 17.1788 11.5179 17.3953L11.2115 18.8048H8.78845L8.48206 17.3953C8.43491 17.1788 8.27194 17.0061 8.05862 16.9466C7.50305 16.7917 6.96579 16.5689 6.46179 16.2845C6.26877 16.1755 6.03134 16.1824 5.84488 16.3022L4.63089 17.0827L2.91748 15.3691L3.69781 14.1551C3.81775 13.9687 3.82462 13.7312 3.71567 13.5382C3.43124 13.0342 3.20847 12.4969 3.05344 11.9414C2.99393 11.7281 2.82135 11.5651 2.60483 11.5179L1.19522 11.2115V8.78845L2.60468 8.48206C2.8212 8.43491 2.99393 8.27194 3.05344 8.05862C3.20831 7.50305 3.43109 6.96579 3.71552 6.46179C3.82446 6.26877 3.81775 6.03134 3.69781 5.84488L2.91733 4.63089L4.63074 2.91733L5.84488 3.69781C6.03134 3.81775 6.26877 3.82446 6.46164 3.71552C6.96579 3.43109 7.50305 3.20831 8.05862 3.05344C8.27194 2.99393 8.43491 2.8212 8.48206 2.60468L8.78845 1.19522H11.2115L11.5179 2.60468C11.5651 2.8212 11.7281 2.99393 11.9414 3.05344C12.4969 3.20831 13.0342 3.43109 13.5382 3.71552C13.7312 3.82446 13.9687 3.8176 14.1551 3.69781L15.3691 2.91733L17.0825 4.63089L16.3022 5.84488C16.1823 6.03134 16.1754 6.26877 16.2843 6.46179C16.5689 6.96579 16.7915 7.50305 16.9466 8.05862C17.0061 8.27194 17.1786 8.43491 17.3952 8.48206L18.8048 8.78845V11.2115Z" fill="#323232"/>
</svg>
