<svg width="1317" height="927" viewBox="0 0 1317 927" fill="none" xmlns="http://www.w3.org/2000/svg">
<path opacity="0.2" d="M79.3427 1082C76.6383 1087.66 74.26 1096.05 72.2881 1101.93C125.763 1101.93 183.942 1102 231.75 1102C286.408 1101.99 341.066 1101.99 395.725 1101.98C505.041 1101.97 614.358 1101.96 723.674 1101.95C941.934 1101.93 1160.19 1101.91 1378.45 1101.89C1378.83 1101.89 1379.2 1101.89 1379.57 1101.89C1379.63 755.388 1379.68 408.883 1379.73 62.3775C1249.61 35.9745 1114.8 94.9933 1016.27 176.032C971.303 213.017 930.477 255.299 877.594 282.475C824.712 309.65 754.375 318.579 704.846 286.679C654.414 254.198 640.74 191.096 596.739 151.745C552.564 112.238 486.134 101.556 426.754 112.93C366.828 124.409 305.456 170.452 286.737 224.193C282.197 237.229 280.473 251 280.982 264.656C282.796 313.329 311.697 355.688 339.465 395.767C360.611 426.289 404.237 447.006 410.867 484.984C414.85 507.802 402.664 530.95 384.919 547.613C367.174 564.276 344.341 575.643 321.999 586.951C257.803 619.441 194.602 653.529 132.493 689.164C89.6337 713.755 26.1885 758.06 49.8694 811.736C64.3548 844.568 106.789 857.316 136.565 875.799C152.668 885.794 167.362 899.486 171.394 916.732C176.054 936.661 165.692 956.801 154.207 974.34C131 1009.78 97.6778 1043.62 79.3427 1082Z" fill="#FFBF69"/>
<path d="M104.731 869C144.331 885.4 156.564 903.5 157.731 910.5C133.731 886.5 70.7305 869 51.7305 857.5C32.7305 846 3.73092 821 0.230925 780.5C-3.26908 740 33.7309 715.5 62.7309 699.5C85.9309 686.7 157.064 659.167 189.731 647C182.731 653 143.731 670.5 101.231 692.5C58.7309 714.5 31.2309 741 31.2309 780.5C31.2309 820 55.2309 848.5 104.731 869Z" fill="#FFF2E1"/>
<path d="M379.23 113.5C339.63 128.7 303.064 172.167 289.73 192C298.73 172.667 329.23 127.2 379.23 100C429.23 72.8002 483.73 85.3335 504.73 95.0002C440.23 90.5002 428.73 94.5002 379.23 113.5Z" fill="#FFF2E1"/>
<path d="M1292.23 38C1213.03 44 1131.23 86.1667 1100.23 106.5C1185.43 32.5 1291.06 4.66668 1333.23 0L1331.73 38C1320.13 36.4 1300.56 37.3334 1292.23 38Z" fill="#FFF2E1"/>
<path d="M215.73 953C220.063 935.667 218.93 891.8 179.73 855C130.73 809 115.73 782 155.73 746C195.73 710 435.73 586 470.73 532C505.73 478 355.73 375 343.73 316C331.73 257 317.73 200 405.73 165C493.73 130 548.73 202 609.73 259C670.73 316 739.73 406 880.73 341C1021.73 276 1057.73 193 1213.73 130C1235.4 123.667 1290.13 111.4 1335.73 113" stroke="#F9DDB9" stroke-width="7"/>
<path d="M281.997 962C279.997 939 291.8 876.2 259 845C218 806 249.997 774 292.997 746C335.997 718 407.726 665 472.726 615C537.726 565 533.726 440 460.726 365C387.726 290 355.726 231 425.726 210C495.726 189 649.726 401 725.726 410C801.726 419 1003.73 402 1098.73 309C1174.73 234.6 1293.73 225.334 1343.73 230" stroke="#F9DDB9" stroke-width="7"/>
<path d="M407.73 947C402.397 924.667 400.93 866.4 437.73 812C483.73 744 626.73 516 574.73 425C522.73 334 693.73 520 815.73 481C937.73 442 1013.73 527 1072.73 481C1131.73 435 1124.73 394 1240.73 393H1319.73" stroke="#F9DDB9" stroke-width="7"/>
<path d="M520.73 940C511.73 900 528.33 819.4 666.73 817C706.73 820 790.53 848.8 805.73 940" stroke="#F9DDB9" stroke-width="7"/>
<path d="M972.73 631C988.73 605.333 1033.73 557.2 1085.73 570C1150.73 586 1152.73 519 1197.73 489C1233.73 465 1295.4 463.667 1321.73 466" stroke="#F9DDB9" stroke-width="7"/>
<path d="M973 687C983.102 701.485 1014.13 727.887 1057.42 717.616C1111.54 704.777 1150.5 693.913 1187.3 717.616C1224.1 741.318 1251.16 677.124 1328 709.715" stroke="#F9DDB9" stroke-width="7"/>
<path d="M1050 773.877C1101.64 759.194 1228.53 744.845 1323 804.91M1080.33 820.928C1122.94 807.914 1231.13 803.108 1323 888" stroke="#F9DDB9" stroke-width="7"/>
<path d="M1053.73 828C1058.06 843 1079.93 875.2 1132.73 884C1185.53 892.8 1214.06 923.667 1221.73 938" stroke="#F9DDB9" stroke-width="7"/>
<path d="M959.73 830C956.397 853.333 975.93 907.8 1080.73 939M831.73 830C850.397 840.667 891.93 878.8 908.73 946" stroke="#F9DDB9" stroke-width="7"/>
<path d="M1137.93 325.145C1138.38 321.808 1138.6 318.359 1138.6 314.688C1138.6 311.128 1138.38 307.568 1137.82 304.23L1160.41 286.653C1162.41 285.095 1162.97 282.091 1161.74 279.866L1140.38 242.931C1139.05 240.484 1136.27 239.705 1133.82 240.484L1107.23 251.164C1101.67 246.936 1095.77 243.376 1089.21 240.706L1085.2 212.449C1084.76 209.779 1082.53 207.888 1079.86 207.888H1037.14C1034.47 207.888 1032.36 209.779 1031.91 212.449L1027.91 240.706C1021.34 243.376 1015.34 247.048 1009.89 251.164L983.296 240.484C980.849 239.594 978.068 240.484 976.733 242.931L955.484 279.866C954.149 282.203 954.594 285.095 956.819 286.653L979.403 304.23C978.846 307.568 978.401 311.239 978.401 314.688C978.401 318.136 978.624 321.808 979.18 325.145L956.596 342.723C954.594 344.28 954.038 347.284 955.261 349.509L976.621 386.444C977.956 388.891 980.738 389.67 983.185 388.891L1009.77 378.211C1015.34 382.439 1021.23 385.999 1027.8 388.669L1031.8 416.926C1032.36 419.596 1034.47 421.488 1037.14 421.488H1079.86C1082.53 421.488 1084.76 419.596 1085.09 416.926L1089.1 388.669C1095.66 385.999 1101.67 382.439 1107.12 378.211L1133.71 388.891C1136.15 389.781 1138.94 388.891 1140.27 386.444L1161.63 349.509C1162.97 347.061 1162.41 344.28 1160.3 342.723L1137.93 325.145ZM1058.5 354.738C1036.47 354.738 1018.45 336.715 1018.45 314.688C1018.45 292.66 1036.47 274.638 1058.5 274.638C1080.53 274.638 1098.55 292.66 1098.55 314.688C1098.55 336.715 1080.53 354.738 1058.5 354.738Z" fill="#FFBF69"/>
<path d="M631.777 339.208H609.773C606.206 324.879 600.565 311.377 593.175 299.042L608.739 283.434C613.903 278.256 613.903 269.86 608.739 264.682L576.698 232.551C571.534 227.373 563.162 227.373 557.998 232.551L542.434 248.158C530.133 240.748 516.669 235.091 502.38 231.514V209.449C502.38 202.125 496.459 196.188 489.156 196.188H443.844C436.541 196.188 430.62 202.125 430.62 209.449V231.514C416.331 235.091 402.866 240.748 390.566 248.158L375.002 232.551C369.838 227.373 361.466 227.373 356.302 232.551L324.261 264.682C319.097 269.86 319.097 278.256 324.261 283.434L339.824 299.042C332.435 311.377 326.794 324.879 323.227 339.208H301.223C293.92 339.208 288 345.145 288 352.469V397.908C288 405.232 293.92 411.168 301.223 411.168H323.227C326.794 425.498 332.435 439 339.824 451.335L324.261 466.942C319.097 472.121 319.097 480.517 324.261 485.695L356.302 517.826C361.466 523.004 369.838 523.004 375.002 517.826L390.566 502.219C402.866 509.629 416.331 515.286 430.62 518.863V540.928C430.62 548.252 436.541 554.188 443.844 554.188H489.156C496.459 554.188 502.38 548.252 502.38 540.928V518.863C516.669 515.286 530.133 509.629 542.434 502.219L557.998 517.826C563.162 523.004 571.534 523.004 576.698 517.826L608.739 485.695C613.903 480.517 613.903 472.121 608.739 466.942L593.175 451.335C600.565 439 606.206 425.498 609.773 411.168H631.777C639.08 411.168 645 405.232 645 397.908V352.469C645 345.145 639.08 339.208 631.777 339.208ZM466.5 464.824C417.134 464.824 377.115 424.693 377.115 375.188C377.115 325.684 417.134 285.553 466.5 285.553C515.866 285.553 555.885 325.684 555.885 375.188C555.885 424.693 515.866 464.824 466.5 464.824Z" fill="#FF7769"/>
<path d="M1074.81 733.532H417.738V352.621C417.738 334.676 432.285 320.129 450.23 320.129H1042.32C1060.27 320.129 1074.81 334.676 1074.81 352.621V733.532Z" fill="#323232"/>
<path d="M1043.62 350.402H448.927V697.842H1043.62V350.402Z" fill="#323232"/>
<path d="M1195 835.188H297L417.531 733.188H1074.47L1195 835.188Z" fill="#5E5E5E"/>
<path d="M1162.93 850.188H329.068C311.357 850.188 297 844.632 297 837.777V835.188H1195V837.777C1195 844.632 1180.64 850.188 1162.93 850.188Z" fill="#323232"/>
<path d="M488.157 761.188H452.238C451.121 761.188 450.577 759.832 451.389 759.069L462.6 748.525C462.829 748.309 463.133 748.188 463.449 748.188H497.762C498.833 748.188 499.397 749.451 498.678 750.241L489.074 760.785C488.839 761.042 488.506 761.188 488.157 761.188Z" fill="#8A8A8A"/>
<path d="M561.292 761.188H524.264C523.193 761.188 522.609 759.971 523.297 759.172L532.381 748.627C532.621 748.349 532.975 748.188 533.348 748.188H568.736C569.752 748.188 570.351 749.297 569.776 750.112L562.332 760.656C562.097 760.989 561.708 761.188 561.292 761.188Z" fill="#8A8A8A"/>
<path d="M618.645 761.188H581.265C580.275 761.188 579.67 760.131 580.192 759.313L586.924 748.769C587.155 748.408 587.561 748.188 587.997 748.188H623.735C624.661 748.188 625.272 749.124 624.879 749.938L619.789 760.482C619.581 760.913 619.135 761.188 618.645 761.188Z" fill="#8A8A8A"/>
<path d="M675.997 761.188H638.269C637.371 761.188 636.758 760.309 637.093 759.502L641.476 748.958C641.669 748.493 642.135 748.188 642.652 748.188H678.732C679.557 748.188 680.162 748.94 679.961 749.716L677.226 760.26C677.084 760.806 676.578 761.188 675.997 761.188Z" fill="#8A8A8A"/>
<path d="M733.4 761.188H696.245C695.467 761.188 694.88 760.492 695.021 759.738L696.995 749.193C697.104 748.611 697.618 748.188 698.218 748.188H733.755C734.459 748.188 735.023 748.763 734.999 749.457L734.643 760.001C734.621 760.663 734.071 761.188 733.4 761.188Z" fill="#8A8A8A"/>
<path d="M790.755 761.188H753.601C752.929 761.188 752.379 760.663 752.357 760.001L752.001 749.457C751.977 748.763 752.541 748.188 753.245 748.188H788.781C789.382 748.188 789.896 748.611 790.005 749.193L791.979 759.738C792.12 760.492 791.533 761.188 790.755 761.188Z" fill="#8A8A8A"/>
<path d="M847.761 761.188H810.91C810.343 761.188 809.848 760.806 809.709 760.26L807.038 749.716C806.841 748.94 807.433 748.188 808.239 748.188H843.48C843.985 748.188 844.44 748.493 844.628 748.958L848.909 759.502C849.237 760.309 848.638 761.188 847.761 761.188Z" fill="#8A8A8A"/>
<path d="M905.735 761.188H868.355C867.865 761.188 867.419 760.913 867.211 760.482L862.121 749.938C861.728 749.124 862.339 748.188 863.265 748.188H899.003C899.439 748.188 899.846 748.408 900.076 748.769L906.808 759.313C907.33 760.131 906.725 761.188 905.735 761.188Z" fill="#8A8A8A"/>
<path d="M962.736 761.188H925.708C925.292 761.188 924.903 760.989 924.668 760.656L917.224 750.112C916.649 749.297 917.248 748.188 918.264 748.188H953.652C954.025 748.188 954.379 748.349 954.619 748.627L963.703 759.172C964.391 759.971 963.808 761.188 962.736 761.188Z" fill="#8A8A8A"/>
<path d="M1019.76 761.188H983.843C983.494 761.188 983.161 761.042 982.927 760.785L973.322 750.241C972.603 749.451 973.167 748.188 974.238 748.188H1008.55C1008.87 748.188 1009.17 748.309 1009.4 748.525L1020.61 759.069C1021.42 759.832 1020.88 761.188 1019.76 761.188Z" fill="#8A8A8A"/>
<path d="M470.061 781.188H430.266C429.124 781.188 428.568 779.831 429.398 779.067L443.023 766.525C443.258 766.309 443.569 766.188 443.892 766.188H481.734C482.83 766.188 483.406 767.452 482.671 768.242L470.997 780.784C470.758 781.042 470.417 781.188 470.061 781.188Z" fill="#8A8A8A"/>
<path d="M546.98 781.188H507.252C506.191 781.188 505.612 779.97 506.295 779.17L516.994 766.628C517.232 766.349 517.582 766.188 517.952 766.188H555.748C556.754 766.188 557.348 767.298 556.778 768.113L548.01 780.656C547.777 780.989 547.391 781.188 546.98 781.188Z" fill="#8A8A8A"/>
<path d="M608.838 781.188H569.239C568.269 781.188 567.677 780.13 568.188 779.312L576.022 766.769C576.248 766.408 576.646 766.188 577.073 766.188H614.762C615.668 766.188 616.266 767.124 615.881 767.939L609.958 780.482C609.754 780.913 609.318 781.188 608.838 781.188Z" fill="#8A8A8A"/>
<path d="M448.972 804.188H406.247C405.122 804.188 404.574 802.869 405.392 802.126L421.477 787.516C421.708 787.306 422.014 787.188 422.332 787.188H462.753C463.832 787.188 464.4 788.417 463.676 789.185L449.895 803.796C449.659 804.046 449.324 804.188 448.972 804.188Z" fill="#8A8A8A"/>
<path d="M531.089 804.188H487.269C486.193 804.188 485.607 803.004 486.298 802.226L499.285 787.616C499.525 787.345 499.88 787.188 500.255 787.188H541.732C542.751 787.188 543.353 788.267 542.775 789.06L532.133 803.67C531.897 803.995 531.507 804.188 531.089 804.188Z" fill="#8A8A8A"/>
<path d="M597.612 804.188H554.247C553.271 804.188 552.675 803.16 553.189 802.364L562.635 787.753C562.862 787.402 563.262 787.188 563.693 787.188H604.754C605.666 787.188 606.268 788.098 605.881 788.891L598.739 803.501C598.534 803.921 598.095 804.188 597.612 804.188Z" fill="#8A8A8A"/>
<path d="M670.538 781.188H630.253C629.366 781.188 628.761 780.308 629.092 779.501L634.235 766.958C634.426 766.493 634.886 766.188 635.396 766.188H673.748C674.563 766.188 675.16 766.941 674.962 767.717L671.752 780.259C671.612 780.805 671.112 781.188 670.538 781.188Z" fill="#8A8A8A"/>
<path d="M865.747 804.188H621.253C620.366 804.188 619.761 803.333 620.092 802.548L626.256 787.937C626.446 787.485 626.906 787.188 627.417 787.188H859.584C860.094 787.188 860.554 787.485 860.745 787.937L866.908 802.548C867.239 803.333 866.634 804.188 865.747 804.188Z" fill="#8A8A8A"/>
<path d="M732.336 781.188H692.242C691.466 781.188 690.88 780.492 691.021 779.736L693.362 767.194C693.471 766.611 693.985 766.188 694.584 766.188H732.758C733.46 766.188 734.023 766.764 733.999 767.458L733.577 780.001C733.555 780.663 733.006 781.188 732.336 781.188Z" fill="#8A8A8A"/>
<path d="M794.729 781.188H753.703C753.017 781.188 752.456 780.663 752.433 780.001L752.001 767.458C751.977 766.764 752.553 766.188 753.271 766.188H792.333C792.946 766.188 793.472 766.611 793.583 767.194L795.979 779.736C796.123 780.492 795.523 781.188 794.729 781.188Z" fill="#8A8A8A"/>
<path d="M855.747 781.188H815.462C814.888 781.188 814.388 780.805 814.248 780.259L811.038 767.717C810.84 766.941 811.437 766.188 812.252 766.188H850.604C851.115 766.188 851.574 766.493 851.765 766.958L856.908 779.501C857.239 780.308 856.634 781.188 855.747 781.188Z" fill="#8A8A8A"/>
<path d="M917.761 781.188H878.162C877.682 781.188 877.246 780.913 877.042 780.482L871.119 767.939C870.734 767.124 871.332 766.188 872.238 766.188H909.927C910.354 766.188 910.752 766.408 910.978 766.769L918.812 779.312C919.323 780.13 918.731 781.188 917.761 781.188Z" fill="#8A8A8A"/>
<path d="M979.748 781.188H940.02C939.609 781.188 939.223 780.989 938.99 780.656L930.222 768.113C929.652 767.298 930.246 766.188 931.252 766.188H969.048C969.418 766.188 969.768 766.349 970.006 766.628L980.705 779.17C981.388 779.97 980.809 781.188 979.748 781.188Z" fill="#8A8A8A"/>
<path d="M988.745 793.188H946.92C946.508 793.188 946.122 792.981 945.888 792.634L942.222 787.19C941.651 786.342 942.246 785.188 943.254 785.188H984.272C984.642 785.188 984.993 785.356 985.231 785.645L989.705 791.09C990.388 791.921 989.809 793.188 988.745 793.188Z" fill="#8A8A8A"/>
<path d="M998.744 804.188H955.357C954.944 804.188 954.557 803.997 954.324 803.675L950.223 798.042C949.651 797.257 950.247 796.188 951.256 796.188H993.739C994.11 796.188 994.462 796.343 994.7 796.612L999.705 802.245C1000.39 803.015 999.809 804.188 998.744 804.188Z" fill="#8A8A8A"/>
<path d="M1065.74 804.188H1022.67C1022.31 804.188 1021.97 804.047 1021.73 803.799L1016.33 798.166C1015.6 797.405 1016.17 796.188 1017.26 796.188H1059.43C1059.75 796.188 1060.06 796.304 1060.29 796.513L1066.61 802.146C1067.43 802.881 1066.88 804.188 1065.74 804.188Z" fill="#8A8A8A"/>
<path d="M932.744 804.188H889.056C888.57 804.188 888.127 803.923 887.921 803.508L885.12 797.874C884.73 797.09 885.337 796.188 886.255 796.188H929.04C929.474 796.188 929.877 796.4 930.106 796.748L933.809 802.381C934.328 803.169 933.727 804.188 932.744 804.188Z" fill="#8A8A8A"/>
<path d="M1040.76 781.188H1001.7C1001.35 781.188 1001.02 781.042 1000.78 780.784L989.323 768.242C988.602 767.452 989.167 766.188 990.243 766.188H1027.38C1027.7 766.188 1028.01 766.309 1028.24 766.525L1041.61 779.067C1042.42 779.831 1041.88 781.188 1040.76 781.188Z" fill="#8A8A8A"/>
<path d="M590.773 46L682.599 84.1378L667.599 114.475L590.773 46Z" fill="#323232"/>
<path d="M590.773 46L665.242 88.6976L667.599 114.475L590.773 46Z" fill="#444444"/>
<path d="M590.773 46L710.183 71.3749L682.599 84.1378L590.773 46Z" fill="#5E5E5E"/>
<path d="M590.773 46L665.242 88.6976L630.98 101.674L590.773 46Z" fill="#5E5E5E"/>
<path d="M1276.98 292.621L1205.21 328.067L1219.09 353.804L1276.98 292.621Z" fill="#E04839"/>
<path d="M1276.98 292.621L1219.47 331.514L1219.09 353.804L1276.98 292.621Z" fill="#FE7769"/>
<path d="M1276.98 292.621L1182.23 317.834L1205.21 328.067L1276.98 292.621Z" fill="#FF9085"/>
<path d="M1276.98 292.621L1219.47 331.514L1247.85 341.744L1276.98 292.621Z" fill="#FF9085"/>
<path d="M748.5 583.879V608.125C755.197 608.125 760.623 602.699 760.623 596.002C760.623 589.306 755.197 583.879 748.5 583.879Z" fill="#323232"/>
<path d="M748.5 583.879C749.838 583.879 750.925 589.306 750.925 596.002C750.925 602.699 749.838 608.125 748.5 608.125C741.803 608.125 736.377 602.699 736.377 596.002C736.377 589.306 741.803 583.879 748.5 583.879Z" fill="#323232"/>
<path d="M748.5 479.625V569.334C755.197 569.334 760.623 563.903 760.623 557.211V491.748C760.623 485.052 755.197 479.625 748.5 479.625Z" fill="#323232"/>
<path d="M748.5 479.625C749.838 479.625 750.925 485.052 750.925 491.748V557.211C750.925 563.903 749.838 569.334 748.5 569.334C741.803 569.334 736.377 563.903 736.377 557.211V491.748C736.377 485.052 741.803 479.625 748.5 479.625Z" fill="#323232"/>
<path d="M1320 658.704C1277.7 669.373 1184.09 682.911 1148.01 651.702C1102.91 612.69 1157.45 611.69 1196.25 576.68C1235.05 541.67 1222.47 495.656 1320 506.66" stroke="#F9DDB9" stroke-width="7"/>
<path d="M1321.85 619.12C1277.46 630.101 1200.53 638.087 1247.87 582.185C1295.22 526.283 1345.68 545.583 1365 562.22" stroke="#F9DDB9" stroke-width="7"/>
<path d="M1215.82 356C1197.62 371.034 1165.73 409.676 1183.76 443.971C1206.3 486.84 1236.36 496.665 1233.85 548.465C1231.85 589.905 1190.61 608.899 1170.24 613.215C1150.2 616.341 1107.53 611.786 1097.11 568.56C1098.44 561.713 1105.02 549.358 1120.65 554.717C1140.19 561.415 1104.12 591.334 1086.59 594.46C1069.06 597.586 1059.54 602.945 1036 600.265" stroke="#323232" stroke-width="3" stroke-linecap="round" stroke-dasharray="5 8"/>
<path d="M669.5 117C686.167 155.834 745.3 226.6 848.5 199C873.167 190.834 919.8 160.4 909 104C895.5 33.5003 761 65.5003 755.5 152C751.1 221.2 814 293.834 846 321.5" stroke="#323232" stroke-width="3" stroke-linecap="round" stroke-dasharray="5 8"/>
<path d="M105 520V655L226 718" stroke="#323232" stroke-width="3" stroke-linecap="round" stroke-linejoin="round" stroke-dasharray="5.8 5.8"/>
<path d="M102.716 488.408L46.1596 515.711C45.4504 516.054 45 516.771 45 517.559V584.742C45 585.529 45.4507 586.247 46.1596 586.59L102.716 613.893C103.843 614.437 105.157 614.437 106.284 613.893L162.84 586.59C163.55 586.247 164 585.529 164 584.742V517.559C164 516.771 163.549 516.054 162.84 515.711L106.284 488.408C105.157 487.864 103.843 487.864 102.716 488.408Z" fill="#FFD38B"/>
<path d="M45.3412 516.436C45.1256 516.764 45 517.15 45 517.559V584.742C45 585.529 45.4507 586.247 46.1596 586.589L102.716 613.892C103.279 614.164 103.89 614.3 104.5 614.3V544.995L45.3412 516.436Z" fill="#FDBD69"/>
<path d="M163.659 516.436C163.874 516.764 164 517.15 164 517.559V584.742C164 585.529 163.549 586.247 162.84 586.589L106.284 613.892C105.721 614.164 105.11 614.301 104.5 614.301V544.995L163.659 516.436Z" fill="#F6A231"/>
<path d="M256.716 644.408L200.16 671.711C199.45 672.054 199 672.771 199 673.559V740.742C199 741.529 199.451 742.247 200.16 742.59L256.716 769.893C257.843 770.437 259.157 770.437 260.284 769.893L316.84 742.59C317.55 742.247 318 741.529 318 740.742V673.559C318 672.771 317.549 672.054 316.84 671.711L260.284 644.408C259.157 643.864 257.843 643.864 256.716 644.408Z" fill="#FFD38B"/>
<path d="M199.341 672.436C199.126 672.764 199 673.15 199 673.559V740.742C199 741.529 199.451 742.247 200.16 742.589L256.716 769.892C257.279 770.164 257.89 770.3 258.5 770.3V700.995L199.341 672.436Z" fill="#FDBD69"/>
<path d="M317.659 672.436C317.874 672.764 318 673.15 318 673.559V740.742C318 741.529 317.549 742.247 316.84 742.589L260.284 769.892C259.721 770.164 259.11 770.301 258.5 770.301V700.995L317.659 672.436Z" fill="#F6A231"/>
<path d="M561.716 390.408L505.16 417.711C504.45 418.054 504 418.771 504 419.559V486.742C504 487.529 504.451 488.247 505.16 488.59L561.716 515.893C562.843 516.437 564.157 516.437 565.284 515.893L621.84 488.59C622.55 488.247 623 487.529 623 486.742V419.559C623 418.771 622.549 418.054 621.84 417.711L565.284 390.408C564.157 389.864 562.843 389.864 561.716 390.408Z" fill="#FF9085"/>
<path d="M504.341 418.436C504.126 418.764 504 419.15 504 419.559V486.742C504 487.529 504.451 488.247 505.16 488.589L561.716 515.892C562.279 516.164 562.89 516.3 563.5 516.3V446.995L504.341 418.436Z" fill="#FE7769"/>
<path d="M622.659 418.436C622.874 418.764 623 419.15 623 419.559V486.742C623 487.529 622.549 488.247 621.84 488.589L565.284 515.892C564.721 516.164 564.11 516.301 563.5 516.301V446.995L622.659 418.436Z" fill="#E04839"/>
<path d="M956 482V610L1221 736" stroke="#5E5E5E" stroke-width="3" stroke-linecap="round" stroke-linejoin="round" stroke-dasharray="5.8 5.8"/>
<path d="M1191.72 658.408L1135.16 685.711C1134.45 686.054 1134 686.771 1134 687.559V754.742C1134 755.529 1134.45 756.247 1135.16 756.59L1191.72 783.893C1192.84 784.437 1194.16 784.437 1195.28 783.893L1251.84 756.59C1252.55 756.247 1253 755.529 1253 754.742V687.559C1253 686.771 1252.55 686.054 1251.84 685.711L1195.28 658.408C1194.16 657.864 1192.84 657.864 1191.72 658.408Z" fill="#FFD38B"/>
<path d="M1134.34 686.436C1134.13 686.764 1134 687.15 1134 687.559V754.742C1134 755.529 1134.45 756.247 1135.16 756.589L1191.72 783.892C1192.28 784.164 1192.89 784.3 1193.5 784.3V714.995L1134.34 686.436Z" fill="#FDBD69"/>
<path d="M1252.66 686.436C1252.87 686.764 1253 687.15 1253 687.559V754.742C1253 755.529 1252.55 756.247 1251.84 756.589L1195.28 783.892C1194.72 784.164 1194.11 784.301 1193.5 784.301V714.995L1252.66 686.436Z" fill="#F6A231"/>
<path d="M954.716 453.408L898.16 480.711C897.45 481.054 897 481.771 897 482.559V549.742C897 550.529 897.451 551.247 898.16 551.59L954.716 578.893C955.843 579.437 957.157 579.437 958.284 578.893L1014.84 551.59C1015.55 551.247 1016 550.529 1016 549.742V482.559C1016 481.771 1015.55 481.054 1014.84 480.711L958.284 453.408C957.157 452.864 955.843 452.864 954.716 453.408Z" fill="#FF9085"/>
<path d="M897.341 481.436C897.126 481.764 897 482.15 897 482.559V549.742C897 550.529 897.451 551.247 898.16 551.589L954.716 578.892C955.279 579.164 955.89 579.3 956.5 579.3V509.995L897.341 481.436Z" fill="#FE7769"/>
<path d="M1015.66 481.436C1015.87 481.764 1016 482.15 1016 482.559V549.742C1016 550.529 1015.55 551.247 1014.84 551.589L958.284 578.892C957.721 579.164 957.11 579.301 956.5 579.301V509.995L1015.66 481.436Z" fill="#E04839"/>
<path d="M259 671V600L531 467" stroke="#5E5E5E" stroke-width="3" stroke-linecap="round" stroke-dasharray="5.8 5.8"/>
<circle cx="747.5" cy="537.5" r="93.5" fill="#FFBF69"/>
<ellipse cx="747" cy="510.5" rx="29" ry="28.5" fill="#323232"/>
<path d="M808 588.778C797.367 599.889 780.38 616 747 616C713.62 616 693.835 597.667 686 588.778C686 573.437 713.62 556 747 556C780.38 556 808 573.437 808 588.778Z" fill="#323232"/>
</svg>
