<svg width="38" height="38" viewBox="0 0 38 38" fill="none" xmlns="http://www.w3.org/2000/svg">
<circle opacity="0.1" cx="19" cy="19" r="19" fill="#FFAD01"/>
<path d="M24.0669 12.0346C21.7447 10.9791 16.7202 9.75464 15.2002 13.3013C13.6802 16.848 18.3669 19.0013 20.9002 19.6346C22.1669 20.0569 24.7003 21.408 24.7003 23.4346C24.7003 25.968 20.2669 29.768 13.9336 25.968" stroke="#FFAD01" stroke-linecap="round"/>
<path d="M20.1335 8.23438C20.1335 7.95823 19.9097 7.73438 19.6335 7.73438C19.3574 7.73438 19.1335 7.95823 19.1335 8.23438H20.1335ZM20.1335 10.7677V8.23438H19.1335V10.7677H20.1335Z" fill="#FFAD01"/>
<path d="M20.1335 29.7677C20.1335 30.0438 19.9097 30.2677 19.6335 30.2677C19.3574 30.2677 19.1335 30.0438 19.1335 29.7677H20.1335ZM20.1335 27.2344V29.7677H19.1335V27.2344H20.1335Z" fill="#FFAD01"/>
</svg>
