<svg width="20" height="21" viewBox="0 0 20 21" fill="none" xmlns="http://www.w3.org/2000/svg">
<path d="M9.36109 0.989911C9.68306 0.773033 10.1015 0.76209 10.4343 0.961842L10.6531 1.09311C11.2674 1.46176 11.3061 2.33788 10.7267 2.75929L3.51507 8.00428C3.14417 8.27403 2.63732 8.25691 2.28547 7.96275L1.84439 7.59399C1.3336 7.16695 1.37494 6.36936 1.92713 5.9974L9.36109 0.989911Z" fill="#FFD887"/>
<path d="M10.2601 1.10231C9.93127 0.886239 9.50634 0.883032 9.17433 1.09412L8.85546 1.29685C8.2566 1.67759 8.23384 2.54358 8.81186 2.95526L16.1885 8.20907C16.5654 8.47756 17.0774 8.4523 17.4261 8.14799L17.961 7.6812C18.4596 7.24612 18.4057 6.45547 17.8527 6.09206L10.2601 1.10231Z" fill="#FFD887"/>
<path d="M0.901388 6.81474L9.88894 0.823039L18.8765 6.81474L9.88894 12.8064L0.901388 6.81474Z" stroke="#323232"/>
<path d="M0.824097 10.5231L9.60729 16.5116C9.7772 16.6275 10.0007 16.6275 10.1706 16.5116L18.9538 10.5231" stroke="#FFAD01" stroke-linecap="round" stroke-linejoin="round"/>
<path d="M0.824097 13.8194L9.60729 19.808C9.7772 19.9238 10.0007 19.9238 10.1706 19.808L18.9538 13.8194" stroke="#323232" stroke-linecap="round" stroke-linejoin="round"/>
</svg>
