<svg width="38" height="38" viewBox="0 0 38 38" fill="none" xmlns="http://www.w3.org/2000/svg">
<circle opacity="0.1" cx="19" cy="19" r="19" fill="#FFAD01"/>
<path d="M20.5 11C20.5 12.4699 21.4769 13.5 22.5 13.5C23.5231 13.5 24.5 12.4699 24.5 11C24.5 9.53006 23.5231 8.5 22.5 8.5C21.4769 8.5 20.5 9.53006 20.5 11Z" stroke="#FFAD01"/>
<path d="M15.5185 29.0186C15.5088 29.2751 15.719 29.5 16 29.5H22.1875H29C29.281 29.5 29.4912 29.2751 29.4815 29.0186C29.3466 25.4225 28.4808 21.9971 27.1796 19.4874C25.8592 16.941 24.1854 15.5 22.5 15.5C20.8146 15.5 19.1408 16.941 17.8204 19.4874C16.5192 21.9971 15.6534 25.4225 15.5185 29.0186Z" stroke="#FFAD01"/>
<path d="M9 29.44L15.5 30L22 29.44C22 22.6359 19.0899 16 15.5 16C11.9101 16 9 22.6359 9 29.44Z" fill="#FDF5E4"/>
<path d="M13.5 11C13.5 12.4699 14.4769 13.5 15.5 13.5C16.5231 13.5 17.5 12.4699 17.5 11C17.5 9.53006 16.5231 8.5 15.5 8.5C14.4769 8.5 13.5 9.53006 13.5 11Z" stroke="#FFAD01"/>
<path d="M8.51846 29.0186C8.50883 29.2751 8.71902 29.5 9 29.5H15.1875H22C22.281 29.5 22.4912 29.2751 22.4815 29.0186C22.3466 25.4225 21.4808 21.9971 20.1796 19.4874C18.8592 16.941 17.1854 15.5 15.5 15.5C13.8146 15.5 12.1408 16.941 10.8204 19.4874C9.51916 21.9971 8.65345 25.4225 8.51846 29.0186Z" stroke="#FFAD01"/>
</svg>
