<svg width="24" height="24" viewBox="0 0 24 24" fill="none" xmlns="http://www.w3.org/2000/svg">
<path d="M12 24C18.624 24 24 18.624 24 12C24 5.376 18.624 0 12 0C5.376 0 0 5.376 0 12C0 18.624 5.376 24 12 24ZM16.283 11.143H18.001V9.426H19.719V11.144H21.422V12.862H19.719V14.58H18.001V12.862H16.283V11.143ZM8.579 5.999C10.093 5.999 11.487 6.532 12.596 7.562L10.97 9.14C10.331 8.515 9.456 8.216 8.579 8.216C6.503 8.216 4.843 9.934 4.843 11.995C4.843 14.056 6.498 15.774 8.579 15.774C10.156 15.774 11.719 14.85 11.971 13.195H8.579V11.134H14.236C14.299 11.463 14.328 11.792 14.328 12.135C14.328 15.561 12.029 17.999 8.579 17.999V18C5.25 18 2.578 15.314 2.578 11.999C2.578 8.684 5.25 5.999 8.579 5.999Z" fill="#323232"/>
</svg>
