<svg width="22" height="24" viewBox="0 0 22 24" fill="none" xmlns="http://www.w3.org/2000/svg">
<g opacity="0.5">
<path d="M21.1945 9.87874C22.2685 11.0503 22.2685 12.9498 21.1945 14.1214C20.1206 15.293 18.3794 15.293 17.3055 14.1214C16.2315 12.9498 16.2315 11.0503 17.3055 9.87874C18.3794 8.70717 20.1206 8.70717 21.1945 9.87874Z" fill="#B9B9B9"/>
<path d="M12.9445 9.87874C14.0185 11.0503 14.0185 12.9498 12.9445 14.1214C11.8706 15.293 10.1294 15.293 9.05545 14.1214C7.98152 12.9498 7.98152 11.0503 9.05545 9.87874C10.1294 8.70717 11.8706 8.70717 12.9445 9.87874Z" fill="#B9B9B9"/>
<path d="M4.69454 9.87874C5.76847 11.0503 5.76847 12.9498 4.69454 14.1214C3.6206 15.293 1.87939 15.293 0.805453 14.1214C-0.268484 12.9498 -0.268484 11.0503 0.805453 9.87874C1.87939 8.70717 3.6206 8.70717 4.69454 9.87874Z" fill="#B9B9B9"/>
</g>
</svg>
