<svg width="9" height="14" viewBox="0 0 9 14" fill="none" xmlns="http://www.w3.org/2000/svg">
<path d="M8.00156 6.45372L1.77138 0.223657C1.62729 0.0794465 1.43493 0 1.22983 0C1.02472 0 0.832367 0.0794465 0.688271 0.223657L0.229462 0.682352C-0.0690888 0.981244 -0.0690888 1.46703 0.229462 1.76547L5.46109 6.9971L0.223657 12.2345C0.0795603 12.3787 0 12.571 0 12.776C0 12.9812 0.0795603 13.1734 0.223657 13.3178L0.682466 13.7763C0.826676 13.9206 1.01892 14 1.22402 14C1.42913 14 1.62148 13.9206 1.76558 13.7763L8.00156 7.54059C8.146 7.39592 8.22533 7.20277 8.22488 6.99744C8.22533 6.79131 8.146 6.59827 8.00156 6.45372Z" fill="#FFAB3C"/>
</svg>
