<svg width="24" height="24" viewBox="0 0 24 24" fill="none" xmlns="http://www.w3.org/2000/svg">
<path d="M12.4755 3.08156L14.1866 8.34759C14.3874 8.96563 14.9633 9.38407 15.6132 9.38407H20.9972C21.4779 9.38407 21.6817 9.99606 21.297 10.2842L16.9467 13.5431C16.4307 13.9297 16.2194 14.6028 16.422 15.2149L18.235 20.6931C18.389 21.1582 17.8513 21.5443 17.4598 21.2497L12.9017 17.8208C12.3677 17.4191 11.6323 17.4191 11.0983 17.8208L6.54025 21.2497C6.14867 21.5443 5.61103 21.1582 5.76499 20.693L7.57553 15.2223C7.77988 14.6048 7.56302 13.926 7.03852 13.5414L2.70705 10.3651C2.31997 10.0812 2.5164 9.46803 2.99637 9.46192L8.40294 9.39315C9.0457 9.38497 9.6118 8.96815 9.81044 8.35679L11.5245 3.08156C11.6741 2.6209 12.3259 2.62091 12.4755 3.08156Z" fill="#323232" stroke="#323232"/>
<path d="M6 4.71387L7.28571 6.42815" stroke="#FFAD01" stroke-linecap="round"/>
<path d="M12 21.8574L12 20.1431" stroke="#FFAD01" stroke-linecap="round"/>
<path d="M3.42871 15.6348L5.06637 15.128" stroke="#FFAD01" stroke-linecap="round"/>
<path d="M20.3931 15.7324L18.8573 14.9708" stroke="#FFAD01" stroke-linecap="round"/>
<path d="M18 4.71387L16.7143 6.42815" stroke="#FFAD01" stroke-linecap="round"/>
</svg>
