<svg width="24" height="24" viewBox="0 0 24 24" fill="none" xmlns="http://www.w3.org/2000/svg">
<path d="M10.5616 9.37741L12 4.95042L13.4384 9.37741C13.6393 9.99544 14.2152 10.4139 14.865 10.4139H19.5198L15.754 13.1499C15.2283 13.5319 15.0083 14.2089 15.2091 14.827L16.6475 19.2539L12.8817 16.5179C12.356 16.1359 11.6441 16.136 11.1184 16.5179L7.35254 19.2539L8.79095 14.827C8.99177 14.2089 8.77178 13.5319 8.24605 13.1499L4.48023 10.4139H9.13504C9.78488 10.4139 10.3608 9.99544 10.5616 9.37741Z" stroke="#FFD887" stroke-width="2"/>
<path d="M11.1429 11.1431H24V24.0002H6L11.1429 11.1431Z" fill="white"/>
<path d="M11.5245 3.08156C11.6741 2.6209 12.3259 2.62091 12.4755 3.08156L14.1866 8.34759C14.3874 8.96563 14.9633 9.38407 15.6132 9.38407H20.9972C21.4779 9.38407 21.6817 9.99606 21.297 10.2842L16.9467 13.5431C16.4307 13.9297 16.2194 14.6028 16.422 15.2149L18.235 20.693C18.389 21.1582 17.8513 21.5443 17.4598 21.2497L12.9017 17.8208C12.3677 17.4191 11.6323 17.4191 11.0983 17.8208L6.54025 21.2497C6.14867 21.5443 5.61103 21.1582 5.76499 20.693L7.57553 15.2223C7.77988 14.6048 7.56302 13.926 7.03852 13.5414L2.70705 10.3651C2.31997 10.0812 2.5164 9.46803 2.99637 9.46192L8.40294 9.39315C9.0457 9.38497 9.6118 8.96815 9.81044 8.35679L11.5245 3.08156Z" stroke="#323232"/>
<path d="M6 4.71436L7.28571 6.42864" stroke="#FFAD01" stroke-linecap="round"/>
<path d="M12 21.8569L12 20.1426" stroke="#FFAD01" stroke-linecap="round"/>
<path d="M3.42847 15.6343L5.06612 15.1275" stroke="#FFAD01" stroke-linecap="round"/>
<path d="M20.3931 15.7324L18.8573 14.9708" stroke="#FFAD01" stroke-linecap="round"/>
<path d="M18 4.71436L16.7143 6.42864" stroke="#FFAD01" stroke-linecap="round"/>
</svg>
