<svg width="24" height="24" viewBox="0 0 24 24" fill="none" xmlns="http://www.w3.org/2000/svg">
<path d="M22.7686 17.5H12.375H1.23145C1.51132 17.3467 1.8382 17.1888 2.18492 17.0227C2.20472 17.0132 2.22459 17.0037 2.24451 16.9942C2.71303 16.7698 3.21322 16.5303 3.60413 16.2872C3.80822 16.1602 4.00621 16.0181 4.16153 15.8595C4.31089 15.707 4.47286 15.4865 4.49805 15.202C4.85391 11.1829 5.73031 7.45891 7.04767 4.75676C8.37847 2.02704 10.0716 0.5 12 0.5C13.9284 0.5 15.6215 2.02704 16.9523 4.75676C18.2697 7.45891 19.1461 11.1829 19.5019 15.202C19.5271 15.4865 19.6891 15.707 19.8385 15.8595C19.9938 16.0181 20.1918 16.1602 20.3959 16.2872C20.7868 16.5303 21.287 16.7698 21.7555 16.9942L21.8151 17.0227C22.1618 17.1888 22.4887 17.3467 22.7686 17.5Z" stroke="#DBDBDB"/>
<path d="M12 20.5001H12L15.4646 20.5C15.2219 22.1962 13.7632 23.5 12 23.5C10.2368 23.5 8.77807 22.1962 8.53545 20.5L9.17156 20.5001L12 20.5001Z" stroke="#DBDBDB"/>
</svg>
