<svg width="238" height="221" viewBox="0 0 238 221" fill="none" xmlns="http://www.w3.org/2000/svg">
<path d="M115.942 31.9512C100.866 30.8956 85.8056 34.2036 72.5601 41.4798C59.3147 48.7561 48.4447 59.6927 41.2495 72.9824C34.0544 86.2721 30.8385 101.353 31.9862 116.421C33.1339 131.49 38.5967 145.91 47.7216 157.956L83.1147 131.148C79.1387 125.898 76.7584 119.615 76.2583 113.049C75.7582 106.483 77.1595 99.9124 80.2946 94.1217C83.4298 88.3309 88.1662 83.5655 93.9376 80.395C99.7091 77.2246 106.271 75.7832 112.84 76.2431L115.942 31.9512Z" fill="#FF7769"/>
<path d="M62.6257 173.073C72.3796 180.542 83.7469 185.623 95.8172 187.91C107.888 190.196 120.326 189.625 132.136 186.242C143.945 182.858 154.799 176.756 163.827 168.425C172.856 160.093 179.808 149.764 184.127 138.263C188.446 126.762 190.012 114.41 188.7 102.195C187.388 89.9803 183.234 78.2424 176.571 67.9212C169.908 57.6 160.921 48.9824 150.33 42.7583C139.738 36.5341 127.836 32.8765 115.577 32.0781L112.692 76.3846C118.033 76.7325 123.219 78.3262 127.835 81.0383C132.45 83.7503 136.366 87.5053 139.269 92.0026C142.172 96.4998 143.982 101.614 144.554 106.937C145.125 112.259 144.443 117.641 142.561 122.653C140.679 127.664 137.65 132.165 133.716 135.795C129.782 139.425 125.053 142.084 119.907 143.558C114.761 145.033 109.341 145.282 104.082 144.285C98.8223 143.289 93.8693 141.075 89.6192 137.82L62.6257 173.073Z" fill="#FFBF69"/>
<path d="M47.478 157.266C52.0877 163.468 57.5859 168.958 63.7956 173.557L90.2241 137.879C87.5184 135.875 85.1226 133.483 83.114 130.781L47.478 157.266Z" fill="#323232"/>
<g filter="url(#filter0_d)">
<ellipse cx="51.3911" cy="165.935" rx="19.5" ry="19" fill="white"/>
</g>
<path d="M48.148 167.841C48.316 167.841 48.4467 167.887 48.54 167.981C48.6334 168.065 48.68 168.177 48.68 168.317C48.68 168.634 48.5027 168.793 48.148 168.793H47.098V170.417C47.098 170.603 47.042 170.748 46.93 170.851C46.8274 170.953 46.692 171.005 46.524 171.005C46.356 171.005 46.2207 170.953 46.118 170.851C46.0154 170.748 45.964 170.603 45.964 170.417V168.793H41.82C41.652 168.793 41.5214 168.746 41.428 168.653C41.3347 168.559 41.288 168.443 41.288 168.303C41.288 168.172 41.3394 168.027 41.442 167.869L46.02 161.247C46.1507 161.079 46.3187 160.995 46.524 160.995C46.6827 160.995 46.818 161.046 46.93 161.149C47.042 161.251 47.098 161.396 47.098 161.583V167.841H48.148ZM45.964 167.841V162.983L42.59 167.841H45.964ZM53.3226 170.865C53.2012 171.07 53.0472 171.173 52.8606 171.173C52.7392 171.173 52.6319 171.131 52.5386 171.047C52.4546 170.963 52.4126 170.851 52.4126 170.711C52.4126 170.599 52.4452 170.491 52.5106 170.389L57.8586 161.135C57.9799 160.929 58.1339 160.827 58.3206 160.827C58.4419 160.827 58.5446 160.873 58.6286 160.967C58.7219 161.051 58.7686 161.158 58.7686 161.289C58.7686 161.391 58.7406 161.499 58.6846 161.611L53.3226 170.865ZM52.2306 166.987C51.4839 166.987 50.9006 166.735 50.4806 166.231C50.0606 165.717 49.8506 164.961 49.8506 163.963C49.8506 162.973 50.0606 162.227 50.4806 161.723C50.9006 161.209 51.4839 160.953 52.2306 160.953C52.9772 160.953 53.5606 161.209 53.9806 161.723C54.4006 162.227 54.6106 162.973 54.6106 163.963C54.6106 164.961 54.4006 165.717 53.9806 166.231C53.5606 166.735 52.9772 166.987 52.2306 166.987ZM52.2306 166.175C52.6879 166.175 53.0239 165.997 53.2386 165.643C53.4626 165.288 53.5746 164.728 53.5746 163.963C53.5746 163.207 53.4626 162.651 53.2386 162.297C53.0239 161.942 52.6879 161.765 52.2306 161.765C51.7732 161.765 51.4326 161.942 51.2086 162.297C50.9846 162.651 50.8726 163.207 50.8726 163.963C50.8726 164.728 50.9846 165.288 51.2086 165.643C51.4326 165.997 51.7732 166.175 52.2306 166.175ZM58.9506 171.033C58.2039 171.033 57.6206 170.781 57.2006 170.277C56.7806 169.763 56.5706 169.007 56.5706 168.009C56.5706 167.019 56.7806 166.273 57.2006 165.769C57.6206 165.255 58.2039 164.999 58.9506 164.999C59.7066 164.999 60.2899 165.251 60.7006 165.755C61.1206 166.259 61.3306 167.01 61.3306 168.009C61.3306 169.007 61.1206 169.763 60.7006 170.277C60.2899 170.781 59.7066 171.033 58.9506 171.033ZM58.9506 170.221C59.4172 170.221 59.7579 170.048 59.9726 169.703C60.1966 169.348 60.3086 168.783 60.3086 168.009C60.3086 167.253 60.1966 166.697 59.9726 166.343C59.7486 165.988 59.4079 165.811 58.9506 165.811C58.4932 165.811 58.1526 165.988 57.9286 166.343C57.7139 166.697 57.6066 167.253 57.6066 168.009C57.6066 168.774 57.7139 169.334 57.9286 169.689C58.1526 170.043 58.4932 170.221 58.9506 170.221Z" fill="#323232"/>
<circle cx="110.391" cy="110.435" r="38" stroke="#FDFDFD" stroke-width="3"/>
<g filter="url(#filter1_d)">
<ellipse cx="184.391" cy="133.935" rx="19.5" ry="19" fill="white"/>
</g>
<path d="M176.531 129.065C176.699 129.065 176.825 129.111 176.909 129.205C177.002 129.289 177.049 129.401 177.049 129.541C177.049 129.671 177.007 129.816 176.923 129.975L172.275 138.725C172.163 138.93 171.999 139.033 171.785 139.033C171.635 139.033 171.5 138.981 171.379 138.879C171.267 138.776 171.211 138.65 171.211 138.501C171.211 138.398 171.243 138.295 171.309 138.193L175.677 130.031H170.847C170.679 130.031 170.548 129.989 170.455 129.905C170.371 129.821 170.329 129.704 170.329 129.555C170.329 129.396 170.371 129.275 170.455 129.191C170.548 129.107 170.679 129.065 170.847 129.065H176.531ZM182.083 139.047C180.954 139.047 180.095 138.617 179.507 137.759C178.919 136.9 178.625 135.649 178.625 134.007C178.625 132.355 178.919 131.099 179.507 130.241C180.095 129.382 180.954 128.953 182.083 128.953C183.213 128.953 184.071 129.382 184.659 130.241C185.247 131.09 185.541 132.341 185.541 133.993C185.541 135.645 185.247 136.9 184.659 137.759C184.071 138.617 183.213 139.047 182.083 139.047ZM182.083 138.081C182.867 138.081 183.446 137.749 183.819 137.087C184.193 136.424 184.379 135.393 184.379 133.993C184.379 132.583 184.193 131.552 183.819 130.899C183.455 130.245 182.877 129.919 182.083 129.919C181.299 129.919 180.721 130.25 180.347 130.913C179.974 131.566 179.787 132.593 179.787 133.993C179.787 135.393 179.974 136.424 180.347 137.087C180.721 137.749 181.299 138.081 182.083 138.081ZM190.52 138.865C190.398 139.07 190.244 139.173 190.058 139.173C189.936 139.173 189.829 139.131 189.736 139.047C189.652 138.963 189.61 138.851 189.61 138.711C189.61 138.599 189.642 138.491 189.708 138.389L195.056 129.135C195.177 128.929 195.331 128.827 195.518 128.827C195.639 128.827 195.742 128.873 195.826 128.967C195.919 129.051 195.966 129.158 195.966 129.289C195.966 129.391 195.938 129.499 195.882 129.611L190.52 138.865ZM189.428 134.987C188.681 134.987 188.098 134.735 187.678 134.231C187.258 133.717 187.048 132.961 187.048 131.963C187.048 130.973 187.258 130.227 187.678 129.723C188.098 129.209 188.681 128.953 189.428 128.953C190.174 128.953 190.758 129.209 191.178 129.723C191.598 130.227 191.808 130.973 191.808 131.963C191.808 132.961 191.598 133.717 191.178 134.231C190.758 134.735 190.174 134.987 189.428 134.987ZM189.428 134.175C189.885 134.175 190.221 133.997 190.436 133.643C190.66 133.288 190.772 132.728 190.772 131.963C190.772 131.207 190.66 130.651 190.436 130.297C190.221 129.942 189.885 129.765 189.428 129.765C188.97 129.765 188.63 129.942 188.406 130.297C188.182 130.651 188.07 131.207 188.07 131.963C188.07 132.728 188.182 133.288 188.406 133.643C188.63 133.997 188.97 134.175 189.428 134.175ZM196.148 139.033C195.401 139.033 194.818 138.781 194.398 138.277C193.978 137.763 193.768 137.007 193.768 136.009C193.768 135.019 193.978 134.273 194.398 133.769C194.818 133.255 195.401 132.999 196.148 132.999C196.904 132.999 197.487 133.251 197.898 133.755C198.318 134.259 198.528 135.01 198.528 136.009C198.528 137.007 198.318 137.763 197.898 138.277C197.487 138.781 196.904 139.033 196.148 139.033ZM196.148 138.221C196.614 138.221 196.955 138.048 197.17 137.703C197.394 137.348 197.506 136.783 197.506 136.009C197.506 135.253 197.394 134.697 197.17 134.343C196.946 133.988 196.605 133.811 196.148 133.811C195.69 133.811 195.35 133.988 195.126 134.343C194.911 134.697 194.804 135.253 194.804 136.009C194.804 136.774 194.911 137.334 195.126 137.689C195.35 138.043 195.69 138.221 196.148 138.221Z" fill="#323232"/>
<g filter="url(#filter2_d)">
<ellipse cx="46.3911" cy="65.9346" rx="19.5" ry="19" fill="white"/>
</g>
<path d="M38.3768 69.9686C38.5448 69.9686 38.6754 70.0106 38.7688 70.0946C38.8621 70.1786 38.9088 70.2952 38.9088 70.4446C38.9088 70.6032 38.8621 70.7246 38.7688 70.8086C38.6848 70.8926 38.5541 70.9346 38.3768 70.9346H33.7428C33.5654 70.9346 33.4301 70.8926 33.3368 70.8086C33.2528 70.7246 33.2108 70.6032 33.2108 70.4446C33.2108 70.2952 33.2574 70.1786 33.3508 70.0946C33.4441 70.0106 33.5748 69.9686 33.7428 69.9686H35.4788V62.4646L33.9528 63.4586C33.8781 63.5052 33.8034 63.5286 33.7288 63.5286C33.5981 63.5286 33.4814 63.4679 33.3788 63.3466C33.2854 63.2252 33.2388 63.0946 33.2388 62.9546C33.2388 62.7586 33.3134 62.6186 33.4628 62.5346L35.5908 61.1486C35.7494 61.0459 35.9128 60.9946 36.0808 60.9946C36.2394 60.9946 36.3701 61.0459 36.4728 61.1486C36.5754 61.2512 36.6268 61.3959 36.6268 61.5826V69.9686H38.3768ZM44.4613 64.7466C45.0866 64.7466 45.6326 64.8772 46.0993 65.1386C46.5753 65.3999 46.9393 65.7686 47.1913 66.2446C47.4526 66.7112 47.5833 67.2526 47.5833 67.8686C47.5833 68.4846 47.4433 69.0352 47.1633 69.5206C46.8833 69.9966 46.4913 70.3699 45.9873 70.6406C45.4926 70.9019 44.9186 71.0326 44.2653 71.0326C43.6866 71.0326 43.122 70.9299 42.5713 70.7246C42.0206 70.5192 41.554 70.2392 41.1713 69.8846C41.022 69.7446 40.9473 69.5859 40.9473 69.4086C40.9473 69.2686 40.9846 69.1519 41.0593 69.0586C41.134 68.9652 41.2226 68.9186 41.3253 68.9186C41.456 68.9186 41.5866 68.9699 41.7173 69.0726C42.128 69.4086 42.5386 69.6606 42.9493 69.8286C43.36 69.9872 43.7893 70.0666 44.2373 70.0666C44.928 70.0666 45.4693 69.8706 45.8613 69.4786C46.2533 69.0866 46.4493 68.5546 46.4493 67.8826C46.4493 67.2292 46.2533 66.7019 45.8613 66.3006C45.4693 65.8992 44.942 65.6986 44.2793 65.6986C43.43 65.6986 42.7393 66.0252 42.2073 66.6786C42.0766 66.8186 41.918 66.8886 41.7313 66.8886C41.6006 66.8886 41.4886 66.8512 41.3953 66.7766C41.3113 66.6926 41.2693 66.5806 41.2693 66.4406V61.6106C41.2693 61.4519 41.316 61.3212 41.4093 61.2186C41.512 61.1159 41.652 61.0646 41.8293 61.0646H46.7573C46.9253 61.0646 47.056 61.1066 47.1493 61.1906C47.252 61.2746 47.3033 61.3912 47.3033 61.5406C47.3033 61.6899 47.252 61.8066 47.1493 61.8906C47.056 61.9746 46.9253 62.0166 46.7573 62.0166H42.4033V65.5306C42.6646 65.2786 42.968 65.0872 43.3133 64.9566C43.668 64.8166 44.0506 64.7466 44.4613 64.7466ZM52.5198 70.8646C52.3985 71.0699 52.2445 71.1726 52.0578 71.1726C51.9365 71.1726 51.8292 71.1306 51.7358 71.0466C51.6518 70.9626 51.6098 70.8506 51.6098 70.7106C51.6098 70.5986 51.6425 70.4912 51.7078 70.3886L57.0558 61.1346C57.1772 60.9292 57.3312 60.8266 57.5178 60.8266C57.6392 60.8266 57.7418 60.8732 57.8258 60.9666C57.9192 61.0506 57.9658 61.1579 57.9658 61.2886C57.9658 61.3912 57.9378 61.4986 57.8818 61.6106L52.5198 70.8646ZM51.4278 66.9866C50.6812 66.9866 50.0978 66.7346 49.6778 66.2306C49.2578 65.7172 49.0478 64.9612 49.0478 63.9626C49.0478 62.9732 49.2578 62.2266 49.6778 61.7226C50.0978 61.2092 50.6812 60.9526 51.4278 60.9526C52.1745 60.9526 52.7578 61.2092 53.1778 61.7226C53.5978 62.2266 53.8078 62.9732 53.8078 63.9626C53.8078 64.9612 53.5978 65.7172 53.1778 66.2306C52.7578 66.7346 52.1745 66.9866 51.4278 66.9866ZM51.4278 66.1746C51.8852 66.1746 52.2212 65.9972 52.4358 65.6426C52.6598 65.2879 52.7718 64.7279 52.7718 63.9626C52.7718 63.2066 52.6598 62.6512 52.4358 62.2966C52.2212 61.9419 51.8852 61.7646 51.4278 61.7646C50.9705 61.7646 50.6298 61.9419 50.4058 62.2966C50.1818 62.6512 50.0698 63.2066 50.0698 63.9626C50.0698 64.7279 50.1818 65.2879 50.4058 65.6426C50.6298 65.9972 50.9705 66.1746 51.4278 66.1746ZM58.1478 71.0326C57.4012 71.0326 56.8178 70.7806 56.3978 70.2766C55.9778 69.7632 55.7678 69.0072 55.7678 68.0086C55.7678 67.0192 55.9778 66.2726 56.3978 65.7686C56.8178 65.2552 57.4012 64.9986 58.1478 64.9986C58.9038 64.9986 59.4872 65.2506 59.8978 65.7546C60.3178 66.2586 60.5278 67.0099 60.5278 68.0086C60.5278 69.0072 60.3178 69.7632 59.8978 70.2766C59.4872 70.7806 58.9038 71.0326 58.1478 71.0326ZM58.1478 70.2206C58.6145 70.2206 58.9552 70.0479 59.1698 69.7026C59.3938 69.3479 59.5058 68.7832 59.5058 68.0086C59.5058 67.2526 59.3938 66.6972 59.1698 66.3426C58.9458 65.9879 58.6052 65.8106 58.1478 65.8106C57.6905 65.8106 57.3498 65.9879 57.1258 66.3426C56.9112 66.6972 56.8038 67.2526 56.8038 68.0086C56.8038 68.7739 56.9112 69.3339 57.1258 69.6886C57.3498 70.0432 57.6905 70.2206 58.1478 70.2206Z" fill="#323232"/>
<defs>
<filter id="filter0_d" x="5.89111" y="120.935" width="99" height="98" filterUnits="userSpaceOnUse" color-interpolation-filters="sRGB">
<feFlood flood-opacity="0" result="BackgroundImageFix"/>
<feColorMatrix in="SourceAlpha" type="matrix" values="0 0 0 0 0 0 0 0 0 0 0 0 0 0 0 0 0 0 127 0"/>
<feOffset dx="4" dy="4"/>
<feGaussianBlur stdDeviation="15"/>
<feColorMatrix type="matrix" values="0 0 0 0 0 0 0 0 0 0.313726 0 0 0 0 0.494118 0 0 0 0.2 0"/>
<feBlend mode="normal" in2="BackgroundImageFix" result="effect1_dropShadow"/>
<feBlend mode="normal" in="SourceGraphic" in2="effect1_dropShadow" result="shape"/>
</filter>
<filter id="filter1_d" x="138.891" y="88.9346" width="99" height="98" filterUnits="userSpaceOnUse" color-interpolation-filters="sRGB">
<feFlood flood-opacity="0" result="BackgroundImageFix"/>
<feColorMatrix in="SourceAlpha" type="matrix" values="0 0 0 0 0 0 0 0 0 0 0 0 0 0 0 0 0 0 127 0"/>
<feOffset dx="4" dy="4"/>
<feGaussianBlur stdDeviation="15"/>
<feColorMatrix type="matrix" values="0 0 0 0 0 0 0 0 0 0.313726 0 0 0 0 0.494118 0 0 0 0.2 0"/>
<feBlend mode="normal" in2="BackgroundImageFix" result="effect1_dropShadow"/>
<feBlend mode="normal" in="SourceGraphic" in2="effect1_dropShadow" result="shape"/>
</filter>
<filter id="filter2_d" x="0.891113" y="20.9346" width="99" height="98" filterUnits="userSpaceOnUse" color-interpolation-filters="sRGB">
<feFlood flood-opacity="0" result="BackgroundImageFix"/>
<feColorMatrix in="SourceAlpha" type="matrix" values="0 0 0 0 0 0 0 0 0 0 0 0 0 0 0 0 0 0 127 0"/>
<feOffset dx="4" dy="4"/>
<feGaussianBlur stdDeviation="15"/>
<feColorMatrix type="matrix" values="0 0 0 0 0 0 0 0 0 0.313726 0 0 0 0 0.494118 0 0 0 0.2 0"/>
<feBlend mode="normal" in2="BackgroundImageFix" result="effect1_dropShadow"/>
<feBlend mode="normal" in="SourceGraphic" in2="effect1_dropShadow" result="shape"/>
</filter>
</defs>
</svg>
