<svg width="35" height="35" viewBox="0 0 35 35" fill="none" xmlns="http://www.w3.org/2000/svg">
<path d="M34.1765 13.5149L31.4864 12.9301C31.2525 12.2139 30.9628 11.5154 30.6207 10.8424L32.1099 8.52596C32.3759 8.11207 32.3174 7.56866 31.9698 7.22099L27.779 3.03024C27.4313 2.68257 26.8879 2.62409 26.474 2.89005L24.1576 4.37927C23.4846 4.03721 22.7861 3.74748 22.0699 3.51357L21.4851 0.823517C21.3807 0.342865 20.9551 0 20.4632 0H14.5368C14.0449 0 13.6193 0.342865 13.5149 0.823517L12.9301 3.51357C12.2139 3.74748 11.5154 4.03721 10.8424 4.37927L8.52596 2.89005C8.11207 2.62409 7.56866 2.68257 7.22099 3.03024L3.03024 7.22099C2.68257 7.56866 2.62409 8.11207 2.89005 8.52596L4.37927 10.8424C4.03721 11.5154 3.74748 12.2139 3.51357 12.9301L0.823517 13.5149C0.342865 13.6195 0 14.0449 0 14.5368V20.4632C0 20.9551 0.342865 21.3805 0.823517 21.4851L3.51357 22.0699C3.74748 22.7861 4.03721 23.4846 4.37927 24.1576L2.89005 26.474C2.62409 26.8879 2.68257 27.4313 3.03024 27.779L7.22099 31.9698C7.56866 32.3174 8.11207 32.3759 8.52596 32.1099L10.8424 30.6207C11.5154 30.9628 12.2139 31.2525 12.9301 31.4864L13.5149 34.1765C13.6193 34.6571 14.0449 35 14.5368 35H20.4632C20.9551 35 21.3807 34.6571 21.4851 34.1765L22.0699 31.4864C22.7861 31.2525 23.4846 30.9628 24.1576 30.6207L26.474 32.1099C26.8879 32.3759 27.4313 32.3177 27.779 31.9698L31.9698 27.779C32.3174 27.4313 32.3759 26.8879 32.1099 26.474L30.6207 24.1576C30.9628 23.4846 31.2525 22.7861 31.4864 22.0699L34.1765 21.4851C34.6571 21.3805 35 20.9551 35 20.4632V14.5368C35 14.0449 34.6571 13.6195 34.1765 13.5149ZM23.7749 17.5C23.7749 20.9599 20.9599 23.7749 17.5 23.7749C14.0401 23.7749 11.2251 20.9599 11.2251 17.5C11.2251 14.0401 14.0401 11.2251 17.5 11.2251C20.9599 11.2251 23.7749 14.0401 23.7749 17.5Z" fill="white"/>
</svg>
