<svg width="24" height="24" viewBox="0 0 24 24" fill="none" xmlns="http://www.w3.org/2000/svg">
<path d="M12 0.5C5.37 0.5 0 5.78 0 12.292C0 17.503 3.438 21.922 8.205 23.48C8.805 23.591 9.025 23.226 9.025 22.913C9.025 22.633 9.015 21.891 9.01 20.908C5.672 21.619 4.968 19.326 4.968 19.326C4.422 17.965 3.633 17.601 3.633 17.601C2.546 16.87 3.717 16.885 3.717 16.885C4.922 16.967 5.555 18.1 5.555 18.1C6.625 19.903 8.364 19.382 9.05 19.081C9.158 18.318 9.467 17.799 9.81 17.504C7.145 17.209 4.344 16.195 4.344 11.677C4.344 10.39 4.809 9.338 5.579 8.513C5.444 8.215 5.039 7.016 5.684 5.392C5.684 5.392 6.689 5.076 8.984 6.601C9.944 6.339 10.964 6.209 11.984 6.203C13.004 6.209 14.024 6.339 14.984 6.601C17.264 5.076 18.269 5.392 18.269 5.392C18.914 7.016 18.509 8.215 18.389 8.513C19.154 9.338 19.619 10.39 19.619 11.677C19.619 16.207 16.814 17.204 14.144 17.494C14.564 17.848 14.954 18.571 14.954 19.676C14.954 21.254 14.939 22.522 14.939 22.905C14.939 23.214 15.149 23.583 15.764 23.465C20.565 21.917 24 17.495 24 12.292C24 5.78 18.627 0.5 12 0.5Z" fill="#323232"/>
</svg>
