<svg width="19" height="12" viewBox="0 0 19 12" fill="none" xmlns="http://www.w3.org/2000/svg">
<path d="M1.95819 0.431999V10.496H7.84619V12H0.406188V0.431999H1.95819ZM16.7273 12L14.0073 7.728C13.922 7.73867 13.794 7.744 13.6233 7.744H11.9113V12H10.3593V0.431999H13.4473C14.2366 0.431999 14.9406 0.570666 15.5593 0.848C16.178 1.12533 16.6633 1.536 17.0153 2.08C17.3673 2.61333 17.5433 3.25867 17.5433 4.016C17.5433 4.73067 17.3833 5.38667 17.0633 5.984C16.754 6.58133 16.274 7.03467 15.6233 7.344L18.5353 12H16.7273ZM13.5913 6.24C14.4233 6.24 15.0206 6.02133 15.3833 5.584C15.7566 5.14667 15.9433 4.64533 15.9433 4.08C15.9433 3.73867 15.8633 3.40267 15.7033 3.072C15.554 2.74133 15.3086 2.46933 14.9673 2.256C14.6366 2.032 14.2153 1.92 13.7033 1.92H11.9113V6.24H13.5913Z" fill="white"/>
</svg>
